<?xml version="1.0" encoding="UTF-8"?><svg id="Layer_1" xmlns="http://www.w3.org/2000/svg" viewBox="0 0 24 24"><defs><style>.cls-1{fill:#00627a;}</style></defs><path class="cls-1" d="M21.25,21.59c-.09-.39-.42-.63-.86-.63h-1.16V3.84c0-.65-.32-.96-.97-.96H9.53c-1.31,0-2.62,0-3.93,0-.19,0-.4,.07-.58,.19-.31,.2-.31,.56-.31,.75V20.97h-.36c-.29,0-.59,0-.88,0-.3,0-.57,.17-.71,.43-.13,.25-.13,.54,.02,.78,.08,.13,.19,.21,.29,.28,.04,.02,.07,.05,.1,.08l.07,.06H20.6l.13-.03,.03-.03c.4-.2,.58-.54,.48-.93Zm-7.63-3.95v3.31h-3.3v-3.31h3.3Zm.74-1.63h-4.79c-.57,0-.9,.33-.9,.89v4.06h-2.33V4.51h11.24V20.96h-2.33v-4.04c0-.58-.32-.9-.9-.9Z"/><path class="cls-1" d="M10.69,5.37c-.88,0-1.75,0-2.63,0-.53,0-.88,.35-.88,.88,0,.31,0,.63,0,.94v1.67c0,.56,.34,.9,.9,.9,.48,0,.95,0,1.43,0,.39,0,.78,0,1.18,0,.55,0,.89-.34,.89-.89,0-.87,0-1.74,0-2.61,0-.55-.34-.89-.88-.89Zm-.76,1.64v1.11h-1.11v-1.11h1.11Z"/><path class="cls-1" d="M13.26,9.75h2.59c.56,0,.9-.34,.9-.91v-2.57c0-.58-.33-.91-.91-.91h-2.57c-.57,0-.91,.34-.91,.9v2.59c0,.56,.34,.9,.9,.9Zm.74-1.64v-1.12h1.11v1.12h-1.11Z"/><path class="cls-1" d="M10.68,10.61h-2.61c-.56,0-.89,.34-.89,.9v2.57c0,.59,.33,.91,.92,.91h1.67c.14,0,.28,0,.42,0,.17,0,.35,0,.52,0,.53,0,.86-.34,.86-.87,0-.88,0-1.75,0-2.63,0-.54-.34-.88-.89-.88Zm-.74,1.64v1.11h-1.12v-1.11h1.12Z"/><path class="cls-1" d="M16.75,14.14c0-.89,0-1.78,0-2.66,0-.52-.34-.86-.87-.86h-2.65c-.53,0-.87,.34-.87,.86,0,.89,0,1.77,0,2.66,0,.51,.34,.85,.84,.85,.45,0,.9,0,1.35,0s.9,0,1.35,0c.5,0,.84-.35,.84-.85Zm-2.75-.79v-1.11h1.12v1.11h-1.12Z"/></svg>