<?xml version="1.0" encoding="UTF-8"?><svg id="Layer_1" xmlns="http://www.w3.org/2000/svg" viewBox="0 0 24 24"><defs><style>.cls-1{fill:#00627a;}</style></defs><path class="cls-1" d="M12.63,22.52h-1.21c-.05-.01-.1-.03-.15-.03-1.18-.08-2.3-.37-3.37-.85C3.41,19.63,1.02,14.57,2.34,9.84,3.83,4.5,9.34,1.32,14.65,2.86c3.98,1.15,6.37,3.86,7.21,7.92,.08,.37,.11,.76,.16,1.14v1.17c-.03,.26-.06,.52-.09,.77-.31,2.14-1.19,4.01-2.7,5.57-1.58,1.65-3.51,2.64-5.77,2.98-.28,.04-.55,.07-.83,.11Zm7.76-10.01c.03-4.58-3.74-8.38-8.35-8.4-4.59-.02-8.36,3.7-8.41,8.34-.04,4.61,3.7,8.39,8.36,8.42,4.58,.04,8.41-3.73,8.4-8.37Z"/><path class="cls-1" d="M13.51,16.88h.93v1.56h-4.82v-1.54h1.06v-5.85h-1.05v-1.63h3.87v7.46Z"/><path class="cls-1" d="M12.01,8.29c-.56,0-1.05-.24-1.3-.82-.24-.55-.16-1.07,.24-1.53,.44-.49,1.33-.6,1.95-.25,.54,.31,.79,1.02,.58,1.67-.18,.56-.74,.92-1.47,.92Z"/></svg>