<?xml version="1.0" encoding="UTF-8"?><svg id="Layer_1" xmlns="http://www.w3.org/2000/svg" viewBox="0 0 24 24"><defs><style>.cls-1{fill:#00627a;stroke:#00627a;stroke-miterlimit:10;stroke-width:.5px;}</style></defs><path class="cls-1" d="M16.24,21.8c-.26-.05-.52-.1-.78-.17-.67-.18-1.25-.52-1.76-.97-.07-.06-.19-.09-.28-.09-2.98,0-5.96,0-8.94,0h-.25c0-.08,0-.14,0-.21,0-2.31,0-4.61,0-6.92,0-2.1,1.39-3.76,3.46-4.12,.23-.04,.47-.04,.71-.05,.29,0,.58,0,.88-.02-.92-.18-1.68-.63-2.22-1.4-.54-.77-.7-1.63-.52-2.56,.32-1.57,1.77-2.68,3.4-2.6,1.57,.08,2.92,1.35,3.08,2.91,.18,1.7-.94,3.32-2.8,3.65,.32,0,.64,0,.96,0,1.92,.02,3.53,1.29,3.98,3.15,.06,.27,.09,.55,.13,.83,.27-.05,.54-.11,.81-.15,2.26-.31,4.47,1.34,4.83,3.59,.37,2.37-1.08,4.51-3.41,5.02-.17,.04-.34,.06-.51,.09h-.78Zm-7.04-5.44v-.23c0-1.23-.03-2.46,.01-3.69,.02-.64-.14-1.15-.52-1.66-.26-.35-.5-.42-.88-.34-1.45,.28-2.45,1.47-2.46,2.95,0,1.96,0,3.92,0,5.87,0,.06,0,.12,0,.18h7.4c-.02-.05-.04-.09-.06-.13-.83-1.79-.43-3.84,1.06-5.12,.35-.3,.43-.58,.41-.99-.08-1.52-1.37-2.77-2.89-2.79-.08,0-.18,.05-.22,.11-.22,.29-.43,.58-.62,.88-.06,.09-.1,.21-.1,.32,0,1.47,0,2.95,0,4.42v.22h-1.12Zm7.45-2.17c-1.8,0-3.25,1.45-3.25,3.25,0,1.79,1.45,3.24,3.23,3.25,1.79,0,3.26-1.45,3.26-3.24,0-1.79-1.45-3.25-3.25-3.25ZM11.92,5.97c0-1.2-.98-2.16-2.18-2.16-1.18,0-2.16,.99-2.15,2.17,0,1.19,.99,2.16,2.19,2.16,1.19,0,2.15-.98,2.15-2.17Z"/><path class="cls-1" d="M6.67,14.25v-1.21h1.22v1.21h-1.22Z"/><path class="cls-1" d="M18.65,16.77l-2.48,2.47-1.54-1.55,.76-.75,.75,.76,1.71-1.73,.8,.8Z"/></svg>